<?xml version="1.0" encoding="UTF-8" standalone="no"?>
<svg id="svg4178" xmlns:rdf="http://www.w3.org/1999/02/22-rdf-syntax-ns#" xmlns="http://www.w3.org/2000/svg" height="52.989mm" width="451.56mm" version="1.1" xmlns:cc="http://creativecommons.org/ns#" xmlns:dc="http://purl.org/dc/elements/1.1/" viewBox="0 0 1600.0001 187.75481">
<g id="layer1" transform="translate(2057.1 101.52)">
<path id="path4" d="m-1266.9-97.241c1.7209-3.4471 6.0913-4.4032 9.6368-4.2611 2.453 0.0813 4.3923 1.8028 6.3263 3.1303 2.0322 3.4855 3.2068 8.3368 0.59 11.86-1.5734 2.1906-4.1847 3.1358-6.0422 4.9822-0.3769 10.713 4.2503 20.924 10.287 29.522 3.327 5.0041 8.1837 8.7245 13.155 11.98 7.4243 4.8402 16.318 7.2111 25.157 7.1565 5.3047 0.35512 10.588-0.61725 15.586-2.3819 8.4568-2.584 15.947-7.7302 22.153-13.958-1.8793-1.2455-4.0208-2.3218-5.2391-4.2994-2.4693-4.1246-1.6935-9.9591 1.9722-13.15 4.1683-3.0866 10.828-2.6386 14.007 1.71 3.0429 3.988 2.2398 9.91-0.9998 13.565-2.4037 1.5842-5.2664 1.9776-8.0471 2.2726 0.6228 8.6098 3.7149 16.908 8.2383 24.212 5.332 7.916 12.887 14.439 21.705 18.176 6.4082 2.442 13.242 3.9225 20.131 3.8405 5.1899 0.13662 10.232-1.3329 15.16-2.8352 5.6815-1.8301 10.839-5.0315 15.466-8.7738-0.366-2.5566-1.2237-5.1408-0.3933-7.7084 0.4643-1.841 1.6225-3.4526 2.95-4.8075 2.3874-2.1634 5.8509-2.1141 8.8775-2.0322 2.0377 0.84138 4.3377 1.8684 5.4904 3.8952 2.7916 4.4688 2.0869 11.511-2.8354 14.204-2.9446 1.8739-6.5393 1.2729-9.7188 0.48625-3.9771 7.5445-3.9771 16.761-1.3493 24.748 1.027 2.7152 2.4146 5.2774 3.7367 7.8614 8.2875 0.24588 16.58 0.1585 24.884 0.153h256.79c7.8121 0 15.63 0.0763 23.458-0.0825 0.016-3.1959-0.1258-6.3972 0.1583-9.5821 0.6993-5.3866 2.2072-10.697 4.742-15.521 4.3049-9.1288 12.565-16.641 22.486-19.028 5.7144-1.6334 11.691-2.0869 17.624-2.065-3.4035 1.6718-7.1129 2.5895-10.511 4.2612-7.5719 3.5018-14.843 8.5278-19.066 15.898-4.7856 7.7411-6.7633 17.105-5.6653 26.13 46.447 0 92.894-0.055 139.34 0.0325 3.6275 0.437 6.8563-1.3549 10.129-2.5786 21.841-8.4732 43.672-16.996 65.721-24.928 7.7302-2.9774 15.919-4.5289 24.054-5.9929 8.1563-1.4422 16.444-1.8411 24.715-2.1088-3.2615-4.6491-7.0419-8.9814-11.664-12.308-4.6-3.245-9.331-6.5448-14.778-8.1781-9.1343-3.2724-18.858-4.9988-28.572-4.4961-8.2 0.6555-16.214 2.6605-24.098 4.9112-7.6811 2.3164-15.04 5.556-22.36 8.7901-16.416 7.4352-32.669 15.231-48.752 23.355-8.8282 4.4742-18.028 8.1618-27.359 11.429-12.685 4.4579-26.212 6.9162-39.678 5.9602-6.2115-0.80313-12.346-2.6441-17.744-5.851 4.7966 0.54087 9.5221 1.6499 14.39 1.5516 8.6699 0.34413 17.198-1.6609 25.529-3.8679 13.1-3.3816 25.485-8.9977 37.684-14.756 9.3691-4.3814 18.46-9.3638 27.894-13.625 11.462-5.5068 23.06-10.768 34.942-15.318 9.4839-3.5345 19.432-5.7198 29.446-7.1565 7.1293-0.99975 14.439-1.4314 21.579-0.13662 4.9386 1.109 9.7625 2.8244 14.444 4.7692 7.8395 3.2178 14.723 8.3475 21.158 13.8 4.07 3.4471 7.6429 7.4351 11.024 11.549 9.238 0.77025 18.569 2.36 27.151 6.0094 3.3926 1.3494 6.5229 3.2396 9.7243 4.9986 1.7427 0.93425 3.3926 2.0541 4.9222 3.3216-3.5674-1.1036-7.0255-2.6114-10.582-3.6876-8.8829-2.2781-18.05-3.4089-27.212-3.3489 1.262 2.9446 2.7425 5.7964 3.8024 8.8339 1.8136 5.9984 2.5949 12.281 2.737 18.536 0.131 5.7635-0.519 11.625-2.5131 17.061-5.687 15.881-16.192 30.347-30.719 39.198-4.3104 2.5239-8.8665 4.7036-13.69 6.0094-9.8171 2.3109-20.268 3.1631-30.085 0.48075-5.5341-1.4641-11.074-3.043-16.198-5.627-7.5936-4.0918-14.029-10.276-18.285-17.788 4.1465 3.3981 8.3858 6.7688 13.188 9.2271 5.5886 2.9064 11.429 5.3539 17.493 7.102 11.183 2.289 23.005 2.4201 33.991-0.9615 3.6657-1.3275 7.255-2.8408 10.795-4.4961 4.2721-2.0322 8.0471-4.9714 11.68-8.0034 7.6701-6.1076 13.013-14.679 16.783-23.633 3.398-9.1289 4.3266-19.039 3.6055-28.714-0.6774-6.0914-2.7861-11.893-5.4029-17.389-6.6703 0.19675-13.324 0.53538-19.918 1.4369-17.526 2.6222-34.434 8.1945-50.856 14.701-10.282 3.8241-20.465 7.9051-30.779 11.626 6.206 0.366 12.445 0.0713 18.673 0.46425 2.2234 0.115 3.9225 1.8411 4.9659 3.7095 1.9066 3.8679-0.5626 9.391-4.9331 10.052-4.3814 0.38787-8.7683 0.25675-13.117 0.26225-10.085-0.0763-20.164 0.0125-30.232-0.0713-4.3486 0.0125-8.6863-0.153-12.98 0.295-6.359 1.6444-12.412 4.2284-18.646 6.2442-11.653 4.294-23.316 8.5606-34.8 13.286-5.3702 2.1415-10.658 4.5071-16.182 6.2279-8.1728 2.4092-16.81 2.8081-25.261 2.2891-8.8173-1.3385-17.569-4.3431-24.72-9.7899-6.5338-4.4742-11.396-11.052-14.575-18.236-8.2656-0.46987-16.542-0.26775-24.797-0.27862h-251.34c-7.7357-0.0125-15.46-0.0762-23.174 0.115 1.6772 1.2456 3.8133 2.2071 4.8185 4.1792 2.7588 4.8239 0.9068 11.91-4.3759 14.128-3.6275 1.2456-7.8996 0.72662-11.024-1.5188-1.0708-1.6006-1.9449-3.2505-2.8244-4.9276-1.0107 1.8629-2.2071 3.6384-3.5073 5.2938-1.7482 1.4149-4.141 1.7372-6.3044 1.7318-2.0759 0.0988-4.1683-0.40975-5.8181-1.6771-1.6171-1.5024-2.8026-3.3599-3.8733-5.2665-1.1528 1.9722-1.8575 4.4088-4.0536 5.5178-2.1798 1.781-5.1408 1.5296-7.7139 1.2839-1.8356-0.2295-3.5783-1.1255-4.8566-2.4475-1.1418-1.2565-1.8247-2.8299-2.5185-4.3486-1.404 2.065-2.7206 4.294-4.731 5.8291-2.0651 1.4478-4.813 1.1581-7.1566 1.098-3.4964-0.31137-5.9275-3.2724-7.9215-5.8891-1.1691 1.557-2.3764 3.1085-3.8077 4.4196-1.5024 1.322-3.6603 1.5406-5.556 1.5296-1.8082 0.0487-3.7422 0.0212-5.2937-0.99975-1.8793-1.2674-3.2505-3.0811-4.5289-4.9058-2.4365 2.9664-5.4302 6.5284-9.7461 5.9984-4.3103 0.42613-7.5335-2.879-9.8389-6.0476-1.1801 1.557-2.3983 3.114-3.8296 4.4306-2.158 1.8355-5.2883 1.5188-7.8887 1.4914-3.4254-0.35513-5.5887-3.4854-7.5281-5.9656-1.7427 2.1851-3.2942 4.802-6.1733 5.5996-3.4581 0.89587-7.6865 0.661-10.342-2.0159-1.4586-1.0161-1.8902-2.7808-2.6659-4.2612-0.1858 0-0.5627 0.0213-0.7485 0.0275-0.9342 1.6716-1.546 3.6602-3.174 4.813-2.666 2.0814-6.3645 2.0431-9.5221 1.5022-3.1577-0.874-5.0916-3.8569-6.4683-6.6266-0.6993 1.3001-1.3221 2.6495-2.136 3.8788-3.1959 3.8296-9.1288 3.9444-13.188 1.557-2.0213-1.3002-2.9555-3.5948-4.1792-5.5505-0.6174 1.4422-1.2292 2.8954-1.9503 4.283-3.4418 3.622-9.3965 3.693-13.417 1.109-1.5625-1.5951-2.6114-3.5729-3.8569-5.392-1.1528 2.0049-1.8575 4.4798-4.0864 5.6051-2.3164 1.8629-5.4576 1.5078-8.1673 1.2291-3.3707-0.68288-5.6707-3.7258-6.9435-6.7305-1.3877 2.0651-2.6933 4.2831-4.7037 5.8072-2.2017 1.5242-5.1244 1.1855-7.6156 1.0544-3.2669-0.56812-5.5395-3.3434-7.4516-5.84-1.18 1.557-2.3873 3.114-3.8296 4.4305-2.1579 1.8084-5.2554 1.5188-7.8559 1.5789-3.5728-0.24038-5.5559-3.4472-7.5445-5.993-2.065 3.3544-5.534 6.3535-9.7297 6.0312-4.1519 0.39875-7.5608-2.6222-9.4347-6.0094-1.4641 1.5842-2.7861 3.3434-4.5452 4.6162-2.158 1.5844-5.0643 1.2894-7.5609 1.262-3.4308-0.3605-5.6051-3.4854-7.5227-5.993-1.7154 2.3929-3.4362 5.1352-6.5392 5.769-3.0211 0.43163-6.5175 0.6665-9.036-1.3931-1.9885-1.2455-3.0429-3.3324-3.9497-5.392-1.0544 1.8301-2.2563 3.5948-3.5565 5.25-1.7318 1.4422-4.1355 1.7372-6.2935 1.7372-2.0705 0.10375-4.1683-0.40425-5.8181-1.6716-1.6116-1.5024-2.8026-3.3599-3.8733-5.2665-1.1473 1.9722-1.8575 4.4088-4.0536 5.5178-2.1798 1.781-5.1298 1.5296-7.7139 1.2839-1.8356-0.2295-3.5728-1.12-4.8512-2.4475-1.1527-1.2674-1.8465-2.8572-2.5567-4.3869-1.1363 1.9831-1.8683 4.3705-4.0099 5.556-3.693 2.5621-8.8337 1.6116-12.472-0.56275-1.934-2.5949-3.5292-5.6925-3.0812-9.0359 0.6392-3.3434 2.9501-6.1078 5.8072-7.8395-7.2768-0.25125-14.554-0.15838-21.819-0.13663-83.792-0.0125-167.58 0-251.37 0-7.5991 0-15.193-0.0713-22.786 0.0762-3.5128 7.1566-8.2219 13.964-14.92 18.471-10.839 7.9215-24.748 10.844-37.979 9.7189-6.9654-0.90687-13.843-2.6879-20.301-5.4685-10.249-4.2449-20.574-8.2766-30.943-12.216-8.6589-3.2614-17.438-6.1841-26.13-9.3364-3.4308-1.3548-7.2058-1.2072-10.822-1.2948-17.214 0-34.428 0.16387-51.637 0.0162-2.6387-0.055-5.1845-1.8901-5.9766-4.4086-0.2513-2.2454-0.6665-4.802 0.6556-6.8125 1.2291-1.2455 2.6495-2.5402 4.4687-2.7424 7.326-0.51363 14.679-0.0663 22.016-0.28413-3.5073-1.475-7.0747-2.808-10.637-4.1465-13.139-4.8621-26.108-10.183-39.372-14.717-16.936-5.4029-34.608-9.4784-52.495-8.719-1.4313 4.1574-3.2286 8.2219-4.0099 12.57-3.327 16.089 0.5354 33.516 10.325 46.704 4.1028 5.84 9.5877 10.527 15.253 14.799 4.6163 2.9556 9.6806 5.1354 14.799 7.0474 12.347 3.9826 25.868 4.3104 38.367 0.8195 5.3593-1.8684 10.631-4.0426 15.614-6.7688 4.3759-2.3874 8.2219-5.5941 12.172-8.6098-2.8463 4.649-6.2334 9.0304-10.489 12.472-3.8897 2.7861-7.8504 5.6598-12.412 7.2495-8.8611 3.5455-18.405 5.2445-27.933 5.2226-5.6324-0.32775-11.172-1.5569-16.575-3.1194-8.5551-2.9882-16.116-8.3039-22.715-14.433-7.3751-7.2112-13.024-16.078-17.067-25.54-4.0372-9.4675-5.2773-20.12-3.5564-30.265 0.7211-6.5775 3.3543-12.691 5.9165-18.716-6.8289 0.295-13.701 0.48612-20.399 1.994-5.9438 1.0326-11.549 3.3163-17.269 5.1628 4.2831-2.972 8.8338-5.5341 13.521-7.8012 7.0528-2.961 14.537-4.9769 22.158-5.7199 1.994-0.366 4.1246-0.15838 6.0531-0.85775 1.628-1.5679 2.961-3.4144 4.4852-5.086 5.4794-6.2389 12.232-11.199 19.159-15.696 5.6488-3.5728 11.948-5.9438 18.301-7.9159 8.5333-2.5459 17.575-2.2672 26.332-1.3058 7.9816 1.3221 15.881 3.1522 23.682 5.2882 16.493 5.7362 32.188 13.472 47.977 20.869 15.706 7.6374 31.167 15.985 47.747 21.628 11.871 4.1136 24.311 7.1565 36.941 7.2057 4.7037 0.16388 9.2599-1.12 13.838-1.9886-7.8668 5.2664-17.678 6.4956-26.933 6.4629-6.1624 0.13113-12.232-1.2456-18.208-2.5676-17.804-4.1739-34.401-12.15-50.615-20.405-6.9982-3.3706-14.029-6.6704-20.967-10.167-12.778-5.8018-25.398-12.09-38.782-16.4-7.397-2.0978-14.87-4.1738-22.562-4.8184-6.878-0.50812-13.914-0.65562-20.639 1.1199-5.8018 1.5188-11.669 3.1085-17.006 5.9056-7.7193 4.5125-14.931 10.243-19.913 17.766 19.629-0.48625 39.181 3.7423 57.362 10.986 19.197 7.0638 38.263 14.461 57.335 21.847 2.3164 0.87962 4.5671 2.0486 7.0474 2.4038 7.1019 0.6665 14.248 0.24037 21.372 0.31687 40.279 0.0275 80.558-0.055 120.84 0.0487 0.3551-4.4851 1.0161-9.1014-0.2459-13.505-0.9615-3.999-2.4747-7.8669-4.354-11.511-4.1847-7.2931-10.888-12.953-18.438-16.542-3.7094-1.8246-7.6592-3.0811-11.483-4.6381 9.0796-0.98338 18.41 1.1309 26.316 5.6542 6.0968 3.6658 10.751 9.402 13.62 15.87 3.8405 7.5335 5.1735 16.154 4.3649 24.535 8.1837 0.1475 16.373 0.0875 24.562 0.0875h256.79c7.0474 0 14.106 0.0763 21.169-0.0713 2.2125-3.999 4.1793-8.211 4.8731-12.767 1.5023-6.6922 0.4643-13.8-2.5841-19.907-2.0049 0.48075-4.0863 0.84675-6.1514 0.67738-2.2234-0.2895-4.1137-1.7263-5.911-2.9281-3.1413-4.3814-2.7971-11.024 1.3439-14.69 2.6496-1.3602 5.8455-2.6112 8.8228-1.5186 2.5786 1.0161 5.332 2.6714 6.2553 5.4521 1.18 2.8735 0.1584 5.9219 0.284 8.8884 0.093 0.18025 0.2732 0.54088 0.3661 0.71562 3.9935 3.1085 8.4185 5.7635 13.144 7.6155 7.0528 2.5076 14.592 3.6985 22.082 3.2998 11.292-1.0108 22.24-6.0312 30.156-14.188 4.2557-3.9498 7.3587-8.9485 9.9373-14.1 2.6988-5.4466 4.0536-11.445 4.8512-17.438-2.4037-0.47525-4.8949-0.78125-6.9763-2.1906-4.6382-2.8628-5.556-9.9756-2.147-14.111 3.2942-4.518 10.555-4.9495 14.581-1.1964 3.103 3.0592 3.5455 8.0088 1.8411 11.866-0.8195 2.6114-3.6111 3.5619-5.6488 4.9932 8.271 8.4678 19.115 14.887 31.058 16.094 5.2172 0.366 10.593 0.83038 15.744-0.42062 9.4456-2.0705 18.285-6.8508 25.207-13.603 8.7518-9.2326 14.401-21.705 14.362-34.532-2.2453-1.4588-4.8731-2.6606-6.2989-5.0315-1.6936-3.2124-1.8739-7.3698 0.2458-10.456m7.9651 43.524c-1.1909 3.8078-2.6878 7.5281-4.6982 10.981-3.256 5.7799-8.0471 10.566-13.259 14.597-6.6103 4.6326-14.455 7.4188-22.464 8.2601-8.1017 0.42612-16.285-1.0926-23.721-4.3159-4.1355-2.0431-7.9542-4.7036-11.554-7.5554-4.8949-3.9444-8.1454-9.3855-11.838-14.362 0.295 2.207 0.5463 4.425 0.6556 6.654-0.1148 8.648-1.5843 17.471-5.7581 25.141-2.5786 4.3705-5.6434 8.4841-9.2326 12.068-3.551 3.103-7.4079 5.8892-11.571 8.1017-6.1678 2.6168-12.773 4.7911-19.563 4.4415-7.7411-0.0875-15.586-1.7264-22.404-5.485-3.327-1.6225-6.1842-3.9989-9.1943-6.1131 0.366 3.8788 0.5572 7.7849 0.1966 11.669-0.59 4.2175-2.5949 8.0142-4.1901 11.904 33.188 0.0438 66.371 0.10875 99.559-0.0388-4.2776-4.5015-8.7354-8.8174-13.106-13.226 0.016-11.789-0.9396-23.562-0.6337-35.351 5.1462 4.6872 9.9428 9.7351 14.876 14.641 3.0703 3.174 6.1952 6.3153 8.9813 9.757 1.2893 1.4204 0.4371 3.469 0.8031 5.1134-0.044 6.3809 0.2294 12.756 0.5354 19.132 19.121-0.0125 38.247 0.0925 57.373-0.055-1.6171-4.3431-3.4746-8.5824-5.1408-12.898-1.9667-5.2609-4.0481-10.473-6.2279-15.646-0.3988-1.0051-0.8468-2.0159-0.9779-3.0975 0.1421-1.5133 0.814-2.9064 1.3439-4.3104 3.6876-9.2435 7.3643-18.498 11.063-27.73h0.8195c3.8842 9.5986 7.5937 19.279 11.587 28.834 0.5353 1.3876 1.2346 2.9119 0.6228 4.3979-2.1306 6.3699-5.1517 12.39-7.55 18.656-1.5406 3.9335-3.2451 7.8068-4.5944 11.817 19.126 0.0875 38.252 0.0663 57.384 0 0.3933-7.9324 0.6228-15.865 0.7266-23.808 3.4362-3.5074 6.6267-7.255 10.112-10.724 4.7146-4.7365 9.5057-9.402 14.122-14.242 0.3879 6.5065 0.3169 13.035-0.1256 19.541-0.3114 5.2009-0.011 10.418-0.3551 15.624-0.7157 1.3767-1.9995 2.36-2.9883 3.5072-3.3817 3.338-6.7852 6.6431-10.21 9.921 3.1631 0.18575 6.3262 0.22938 9.5221 0.25675 30.047-0.06 60.099-0.0663 90.152 0-1.2948-3.0156-2.5567-6.0586-3.4909-9.2054-1.5898-4.649-0.661-9.5985-0.3934-14.373-2.9937 2.1579-5.9656 4.3869-9.2762 6.0202-4.3978 2.147-8.883 4.2995-13.8 4.895-13.166 2.1632-27.583-1.1965-37.684-10.15-4.7092-3.7586-8.1072-8.8556-11.205-13.942-2.4147-4.07-3.775-8.6481-4.8075-13.232-1.3494-6.2606-0.6446-12.707-0.3168-19.039-1.4641 2.3655-2.9337 4.742-4.4797 7.0419-3.5019 4.8294-8.0908 8.7464-12.876 12.232-8.8064 5.4685-19.339 8.3148-29.708 7.4406-10.287-1.1691-20.47-5.3319-27.845-12.734-3.6657-3.5346-7.0036-7.5281-9.1451-12.177-1.4368-2.9119-2.4311-6.0258-4.0482-8.8448m-595.87 90.536c5.7034 2.3 11.423 4.5562 17.214 6.6376 14.504 5.4521 29.32 10.44 44.704 12.702 3.7859 0.6065 7.6483 0.6665 11.462 0.19125 4.9769-0.5135 9.4948-2.9336 13.652-5.5778 5.6051-3.5182 10.587-8.2329 13.729-14.111-7.1457-0.306-14.291-0.10875-21.437-0.142-22.765-0.0213-45.529 0.0437-68.294-0.0388-3.6821 0-7.3588 0.12-11.03 0.33863m415.36-0.1475c2.7643 1.3221 4.3595 3.9608 5.9602 6.4574 1.557-2.5676 3.6329-4.7255 5.911-6.6759-3.9662 0.0325-7.9214 0.0875-11.871 0.2185m19.634 0.0762c2.6059 1.6116 4.4852 4.1191 5.9165 6.7961 0.6228-1.3111 1.1418-2.6934 1.9777-3.8952 1.1254-1.1035 2.2781-2.1798 3.4745-3.2231-3.8023 0.055-7.5937 0.142-11.369 0.32225m19.137-0.0825c2.7698 1.3111 4.365 3.9498 5.9657 6.4519 1.6444-2.3328 3.398-4.6109 5.5013-6.5558-3.8351-0.0388-7.6537-0.0225-11.467 0.10375m19.7 0c2.4037 1.3056 4.201 3.4308 5.5941 5.7635 1.781-2.0979 3.7969-3.9716 5.7636-5.9001-3.7969-0.0275-7.5828 0.0162-11.358 0.13662m19.656-0.055c2.1196 1.6716 4.1191 3.5345 5.4958 5.9 1.3494-2.2726 3.3379-4.0371 5.2937-5.7908-3.6056-0.1475-7.2058-0.16937-10.79-0.10875m19.121 0.055c2.4201 1.3056 4.2175 3.4416 5.6269 5.769 1.6389-2.2399 3.6821-4.1192 5.7745-5.9275-3.8132-0.0213-7.6101 0.0325-11.401 0.1585m19.683-0.0275c2.0869 1.7372 4.1191 3.5892 5.7143 5.8072 1.12-2.3546 3.1741-4.0262 5.0807-5.7471-3.6111-0.12-7.2112-0.142-10.795-0.06m19.126 0.0325c2.6659 1.4751 4.4961 3.9826 6.2115 6.441 1.2619-2.7096 3.3652-4.7966 5.6542-6.6759-3.9661 0.0488-7.9214 0.10875-11.866 0.23488m19.607 0.0763c2.6059 1.6116 4.4797 4.1191 5.9165 6.7961 0.9396-1.8575 1.5133-4.07 3.4089-5.261 0.5081-0.46437 1.5297-1.393 2.0432-1.8574-3.8023 0.055-7.5936 0.142-11.369 0.32225m19.203-0.0988c2.726 1.3766 4.3049 4.0099 5.8782 6.5229 1.5515-2.442 3.4254-4.6381 5.5669-6.594-3.8242-0.0325-7.6428-0.0163-11.445 0.0712m19.59 0.0987c2.6223 1.5844 4.2831 4.2339 5.8673 6.7906 0.7539-3.0758 3.0976-5.2172 5.5013-7.1184-3.8022 0.055-7.5936 0.1475-11.369 0.32775m19.208-0.0987c2.6879 1.393 4.2995 3.9716 5.8838 6.4572 1.251-2.5785 3.3707-4.5289 5.4794-6.4191-3.7968-0.19663-7.5936-0.2075-11.363-0.0387m19.612 0.0163c2.4202 1.3056 4.2175 3.4416 5.627 5.769 1.6389-2.2399 3.6821-4.1192 5.7744-5.9275-3.8132-0.0213-7.6155 0.0325-11.401 0.1585m19.684-0.0275c2.0814 1.7372 4.1191 3.5892 5.7143 5.8072 1.1199-2.3546 3.1741-4.0262 5.0807-5.7471-3.6111-0.12-7.2113-0.142-10.795-0.06m19.104 0.0275c2.4201 1.3056 4.2175 3.4416 5.6269 5.769 1.639-2.2399 3.6821-4.1192 5.7745-5.9275-3.8187-0.0212-7.6155 0.0325-11.401 0.1585m19.683-0.0275c2.0814 1.7372 4.1191 3.5892 5.7144 5.8072 1.1199-2.3546 3.174-4.0262 5.0806-5.7471-3.6111-0.12-7.2112-0.142-10.795-0.06m19.148 0.0125c2.7261 1.3766 4.3049 4.0099 5.8783 6.5229 1.5515-2.442 3.4253-4.6381 5.5668-6.594-3.8296-0.0325-7.6428-0.0163-11.445 0.0712m19.585 0.10375c2.6441 1.5734 4.3158 4.2394 5.8783 6.8234 0.956-1.8684 1.5515-4.0809 3.4472-5.2938 0.5135-0.46438 1.5351-1.3985 2.0431-1.8629-3.8022 0.055-7.5936 0.1475-11.369 0.33325m19.203-0.0987c2.7151 1.3712 4.3103 3.9826 5.8946 6.4846 1.0926-2.7588 3.2833-4.7746 5.5942-6.5556-3.846-0.0488-7.6756-0.0213-11.489 0.0712m329.14 0.0275c4.0755 6.6649 9.9755 12.161 16.75 16.029 4.5563 2.5294 9.7134 4.4688 15.023 4.0208 6.3372-0.0925 12.582-1.2948 18.76-2.6441 17.449-4.1028 34.188-10.658 50.817-17.274-10.964-0.63925-21.934-0.16388-32.893-0.295-22.819 0.10875-45.644-0.224-68.458 0.16387z"/>
</g>
</svg>
